<mxfile host="Electron" modified="2024-03-21T09:02:02.920Z" agent="Mozilla/5.0 (Windows NT 10.0; Win64; x64) AppleWebKit/537.36 (KHTML, like Gecko) draw.io/23.1.5 Chrome/120.0.6099.109 Electron/28.1.0 Safari/537.36" etag="1z7TwYOAeLgGpIexd7aR" version="23.1.5" type="device">
  <diagram name="Pagina-1" id="z99o4U3e83wShIZasthi">
    <mxGraphModel dx="1036" dy="614" grid="1" gridSize="10" guides="1" tooltips="1" connect="1" arrows="1" fold="1" page="1" pageScale="1" pageWidth="827" pageHeight="1169" math="0" shadow="0">
      <root>
        <mxCell id="0" />
        <mxCell id="1" parent="0" />
        <mxCell id="r7xht9CgE6vL6qWtcPy5-11" style="edgeStyle=orthogonalEdgeStyle;rounded=0;orthogonalLoop=1;jettySize=auto;html=1;exitX=0.5;exitY=1;exitDx=0;exitDy=0;entryX=0;entryY=0.5;entryDx=0;entryDy=0;" parent="1" source="r7xht9CgE6vL6qWtcPy5-1" target="r7xht9CgE6vL6qWtcPy5-7" edge="1">
          <mxGeometry relative="1" as="geometry" />
        </mxCell>
        <mxCell id="r7xht9CgE6vL6qWtcPy5-12" style="edgeStyle=orthogonalEdgeStyle;rounded=0;orthogonalLoop=1;jettySize=auto;html=1;exitX=0.5;exitY=1;exitDx=0;exitDy=0;entryX=0;entryY=0.5;entryDx=0;entryDy=0;" parent="1" source="r7xht9CgE6vL6qWtcPy5-1" target="r7xht9CgE6vL6qWtcPy5-8" edge="1">
          <mxGeometry relative="1" as="geometry" />
        </mxCell>
        <mxCell id="r7xht9CgE6vL6qWtcPy5-17" style="edgeStyle=orthogonalEdgeStyle;rounded=0;orthogonalLoop=1;jettySize=auto;html=1;exitX=1;exitY=0.5;exitDx=0;exitDy=0;entryX=0;entryY=0.5;entryDx=0;entryDy=0;endArrow=doubleBlock;endFill=1;" parent="1" source="r7xht9CgE6vL6qWtcPy5-1" target="r7xht9CgE6vL6qWtcPy5-4" edge="1">
          <mxGeometry relative="1" as="geometry" />
        </mxCell>
        <mxCell id="r7xht9CgE6vL6qWtcPy5-1" value="Utente" style="rounded=0;whiteSpace=wrap;html=1;" parent="1" vertex="1">
          <mxGeometry x="20" y="140" width="120" height="60" as="geometry" />
        </mxCell>
        <mxCell id="r7xht9CgE6vL6qWtcPy5-32" style="edgeStyle=orthogonalEdgeStyle;rounded=0;orthogonalLoop=1;jettySize=auto;html=1;exitX=1;exitY=0.5;exitDx=0;exitDy=0;entryX=0;entryY=0.5;entryDx=0;entryDy=0;" parent="1" source="r7xht9CgE6vL6qWtcPy5-2" target="r7xht9CgE6vL6qWtcPy5-5" edge="1">
          <mxGeometry relative="1" as="geometry" />
        </mxCell>
        <mxCell id="r7xht9CgE6vL6qWtcPy5-51" style="edgeStyle=orthogonalEdgeStyle;rounded=0;orthogonalLoop=1;jettySize=auto;html=1;exitX=0.5;exitY=1;exitDx=0;exitDy=0;entryX=0;entryY=0.5;entryDx=0;entryDy=0;" parent="1" source="r7xht9CgE6vL6qWtcPy5-2" target="r7xht9CgE6vL6qWtcPy5-45" edge="1">
          <mxGeometry relative="1" as="geometry" />
        </mxCell>
        <mxCell id="r7xht9CgE6vL6qWtcPy5-53" style="edgeStyle=orthogonalEdgeStyle;rounded=0;orthogonalLoop=1;jettySize=auto;html=1;exitX=0;exitY=0.5;exitDx=0;exitDy=0;entryX=1;entryY=0.5;entryDx=0;entryDy=0;" parent="1" source="r7xht9CgE6vL6qWtcPy5-2" target="r7xht9CgE6vL6qWtcPy5-4" edge="1">
          <mxGeometry relative="1" as="geometry" />
        </mxCell>
        <mxCell id="r7xht9CgE6vL6qWtcPy5-2" value="Prestito" style="rounded=0;whiteSpace=wrap;html=1;" parent="1" vertex="1">
          <mxGeometry x="354" y="140" width="120" height="60" as="geometry" />
        </mxCell>
        <mxCell id="r7xht9CgE6vL6qWtcPy5-27" style="edgeStyle=orthogonalEdgeStyle;rounded=0;orthogonalLoop=1;jettySize=auto;html=1;exitX=0.5;exitY=1;exitDx=0;exitDy=0;entryX=0;entryY=0.5;entryDx=0;entryDy=0;" parent="1" source="r7xht9CgE6vL6qWtcPy5-3" target="r7xht9CgE6vL6qWtcPy5-21" edge="1">
          <mxGeometry relative="1" as="geometry" />
        </mxCell>
        <mxCell id="r7xht9CgE6vL6qWtcPy5-30" style="edgeStyle=orthogonalEdgeStyle;rounded=0;orthogonalLoop=1;jettySize=auto;html=1;exitX=0.5;exitY=1;exitDx=0;exitDy=0;entryX=0;entryY=0.5;entryDx=0;entryDy=0;" parent="1" source="r7xht9CgE6vL6qWtcPy5-3" target="r7xht9CgE6vL6qWtcPy5-22" edge="1">
          <mxGeometry relative="1" as="geometry" />
        </mxCell>
        <mxCell id="r7xht9CgE6vL6qWtcPy5-31" style="edgeStyle=orthogonalEdgeStyle;rounded=0;orthogonalLoop=1;jettySize=auto;html=1;exitX=0;exitY=0.5;exitDx=0;exitDy=0;entryX=1;entryY=0.5;entryDx=0;entryDy=0;endArrow=doubleBlock;endFill=1;" parent="1" source="r7xht9CgE6vL6qWtcPy5-3" target="r7xht9CgE6vL6qWtcPy5-5" edge="1">
          <mxGeometry relative="1" as="geometry" />
        </mxCell>
        <mxCell id="r7xht9CgE6vL6qWtcPy5-3" value="Libro" style="rounded=0;whiteSpace=wrap;html=1;" parent="1" vertex="1">
          <mxGeometry x="690" y="140" width="120" height="60" as="geometry" />
        </mxCell>
        <mxCell id="r7xht9CgE6vL6qWtcPy5-4" value="Effettua" style="rhombus;whiteSpace=wrap;html=1;" parent="1" vertex="1">
          <mxGeometry x="210" y="130" width="80" height="80" as="geometry" />
        </mxCell>
        <mxCell id="r7xht9CgE6vL6qWtcPy5-5" value="PuÃ²&lt;br&gt;Essere" style="rhombus;whiteSpace=wrap;html=1;" parent="1" vertex="1">
          <mxGeometry x="540" y="130" width="80" height="80" as="geometry" />
        </mxCell>
        <mxCell id="r7xht9CgE6vL6qWtcPy5-6" value="" style="ellipse;whiteSpace=wrap;html=1;aspect=fixed;" parent="1" vertex="1">
          <mxGeometry x="110" y="210" width="30" height="30" as="geometry" />
        </mxCell>
        <mxCell id="r7xht9CgE6vL6qWtcPy5-7" value="" style="ellipse;whiteSpace=wrap;html=1;aspect=fixed;" parent="1" vertex="1">
          <mxGeometry x="110" y="250" width="30" height="30" as="geometry" />
        </mxCell>
        <mxCell id="r7xht9CgE6vL6qWtcPy5-8" value="" style="ellipse;whiteSpace=wrap;html=1;aspect=fixed;" parent="1" vertex="1">
          <mxGeometry x="110" y="290" width="30" height="30" as="geometry" />
        </mxCell>
        <mxCell id="r7xht9CgE6vL6qWtcPy5-10" value="" style="endArrow=classic;html=1;rounded=0;exitX=0.5;exitY=1;exitDx=0;exitDy=0;entryX=0;entryY=0.5;entryDx=0;entryDy=0;" parent="1" source="r7xht9CgE6vL6qWtcPy5-1" target="r7xht9CgE6vL6qWtcPy5-6" edge="1">
          <mxGeometry width="50" height="50" relative="1" as="geometry">
            <mxPoint x="380" y="340" as="sourcePoint" />
            <mxPoint x="430" y="290" as="targetPoint" />
            <Array as="points">
              <mxPoint x="80" y="225" />
            </Array>
          </mxGeometry>
        </mxCell>
        <mxCell id="r7xht9CgE6vL6qWtcPy5-13" value="Nome" style="text;html=1;align=center;verticalAlign=middle;whiteSpace=wrap;rounded=0;" parent="1" vertex="1">
          <mxGeometry x="140" y="210" width="50" height="30" as="geometry" />
        </mxCell>
        <mxCell id="r7xht9CgE6vL6qWtcPy5-14" value="Cognome" style="text;html=1;align=center;verticalAlign=middle;whiteSpace=wrap;rounded=0;" parent="1" vertex="1">
          <mxGeometry x="140" y="250" width="60" height="30" as="geometry" />
        </mxCell>
        <mxCell id="r7xht9CgE6vL6qWtcPy5-15" value="Email" style="text;html=1;align=center;verticalAlign=middle;whiteSpace=wrap;rounded=0;" parent="1" vertex="1">
          <mxGeometry x="140" y="290" width="50" height="30" as="geometry" />
        </mxCell>
        <mxCell id="r7xht9CgE6vL6qWtcPy5-20" value="" style="ellipse;whiteSpace=wrap;html=1;aspect=fixed;" parent="1" vertex="1">
          <mxGeometry x="780" y="210" width="30" height="30" as="geometry" />
        </mxCell>
        <mxCell id="r7xht9CgE6vL6qWtcPy5-21" value="" style="ellipse;whiteSpace=wrap;html=1;aspect=fixed;" parent="1" vertex="1">
          <mxGeometry x="780" y="250" width="30" height="30" as="geometry" />
        </mxCell>
        <mxCell id="r7xht9CgE6vL6qWtcPy5-22" value="" style="ellipse;whiteSpace=wrap;html=1;aspect=fixed;" parent="1" vertex="1">
          <mxGeometry x="780" y="290" width="30" height="30" as="geometry" />
        </mxCell>
        <mxCell id="r7xht9CgE6vL6qWtcPy5-24" value="Titolo" style="text;html=1;align=center;verticalAlign=middle;whiteSpace=wrap;rounded=0;" parent="1" vertex="1">
          <mxGeometry x="810" y="210" width="50" height="30" as="geometry" />
        </mxCell>
        <mxCell id="r7xht9CgE6vL6qWtcPy5-25" value="Anno_pubblicazione" style="text;html=1;align=center;verticalAlign=middle;whiteSpace=wrap;rounded=0;" parent="1" vertex="1">
          <mxGeometry x="840" y="250" width="60" height="30" as="geometry" />
        </mxCell>
        <mxCell id="r7xht9CgE6vL6qWtcPy5-26" value="IsDisponibile" style="text;html=1;align=center;verticalAlign=middle;whiteSpace=wrap;rounded=0;" parent="1" vertex="1">
          <mxGeometry x="827" y="290" width="50" height="30" as="geometry" />
        </mxCell>
        <mxCell id="r7xht9CgE6vL6qWtcPy5-29" value="" style="endArrow=classic;html=1;rounded=0;exitX=0.5;exitY=1;exitDx=0;exitDy=0;entryX=0;entryY=0.5;entryDx=0;entryDy=0;" parent="1" source="r7xht9CgE6vL6qWtcPy5-3" target="r7xht9CgE6vL6qWtcPy5-20" edge="1">
          <mxGeometry width="50" height="50" relative="1" as="geometry">
            <mxPoint x="380" y="340" as="sourcePoint" />
            <mxPoint x="430" y="290" as="targetPoint" />
            <Array as="points">
              <mxPoint x="750" y="225" />
            </Array>
          </mxGeometry>
        </mxCell>
        <mxCell id="r7xht9CgE6vL6qWtcPy5-44" value="" style="ellipse;whiteSpace=wrap;html=1;aspect=fixed;" parent="1" vertex="1">
          <mxGeometry x="444" y="210" width="30" height="30" as="geometry" />
        </mxCell>
        <mxCell id="r7xht9CgE6vL6qWtcPy5-45" value="" style="ellipse;whiteSpace=wrap;html=1;aspect=fixed;" parent="1" vertex="1">
          <mxGeometry x="444" y="250" width="30" height="30" as="geometry" />
        </mxCell>
        <mxCell id="r7xht9CgE6vL6qWtcPy5-47" value="" style="endArrow=classic;html=1;rounded=0;exitX=0.5;exitY=1;exitDx=0;exitDy=0;entryX=0;entryY=0.5;entryDx=0;entryDy=0;" parent="1" target="r7xht9CgE6vL6qWtcPy5-44" edge="1">
          <mxGeometry width="50" height="50" relative="1" as="geometry">
            <mxPoint x="414" y="200" as="sourcePoint" />
            <mxPoint x="764" y="290" as="targetPoint" />
            <Array as="points">
              <mxPoint x="414" y="225" />
            </Array>
          </mxGeometry>
        </mxCell>
        <mxCell id="r7xht9CgE6vL6qWtcPy5-48" value="Data_inizio" style="text;html=1;align=center;verticalAlign=middle;whiteSpace=wrap;rounded=0;" parent="1" vertex="1">
          <mxGeometry x="479" y="210" width="50" height="30" as="geometry" />
        </mxCell>
        <mxCell id="r7xht9CgE6vL6qWtcPy5-49" value="Data_fine" style="text;html=1;align=center;verticalAlign=middle;whiteSpace=wrap;rounded=0;" parent="1" vertex="1">
          <mxGeometry x="474" y="250" width="60" height="30" as="geometry" />
        </mxCell>
        <mxCell id="r7xht9CgE6vL6qWtcPy5-54" value="" style="endArrow=none;html=1;rounded=0;" parent="1" edge="1">
          <mxGeometry width="50" height="50" relative="1" as="geometry">
            <mxPoint x="150" y="185" as="sourcePoint" />
            <mxPoint x="150" y="155" as="targetPoint" />
          </mxGeometry>
        </mxCell>
        <mxCell id="r7xht9CgE6vL6qWtcPy5-56" value="" style="endArrow=none;html=1;rounded=0;" parent="1" edge="1">
          <mxGeometry width="50" height="50" relative="1" as="geometry">
            <mxPoint x="420" y="280" as="sourcePoint" />
            <mxPoint x="420" y="250" as="targetPoint" />
          </mxGeometry>
        </mxCell>
        <mxCell id="r7xht9CgE6vL6qWtcPy5-57" value="" style="endArrow=none;html=1;rounded=0;" parent="1" edge="1">
          <mxGeometry width="50" height="50" relative="1" as="geometry">
            <mxPoint x="680" y="185" as="sourcePoint" />
            <mxPoint x="680" y="155" as="targetPoint" />
          </mxGeometry>
        </mxCell>
      </root>
    </mxGraphModel>
  </diagram>
</mxfile>
